<?xml version="1.0" encoding="UTF-8"?>
<svg version="1.1" xmlns="http://www.w3.org/2000/svg" width="416" height="600">
<path d="M0 0 C1.23155319 -0.0033284 2.46310638 -0.0066568 3.73197937 -0.01008606 C6.33165108 -0.01513724 8.93132925 -0.01749495 11.53100586 -0.01733398 C15.48757728 -0.01951792 19.44386856 -0.03768634 23.40039062 -0.05664062 C25.9335928 -0.05957551 28.4667963 -0.06155967 31 -0.0625 C32.17323318 -0.06968552 33.34646637 -0.07687103 34.55525208 -0.08427429 C53.1602045 -0.03306762 53.1602045 -0.03306762 60.19921875 6.16796875 C65.01722472 12.81402843 65.83372046 19.16827074 65.19921875 27.16796875 C63.28527369 34.31336365 58.2402504 38.93993108 53.19921875 44.16796875 C52.06226563 45.36486328 52.06226563 45.36486328 50.90234375 46.5859375 C46.92675769 50.68485379 46.92675769 50.68485379 45.19921875 52.16796875 C44.53921875 52.16796875 43.87921875 52.16796875 43.19921875 52.16796875 C42.53921875 53.48796875 41.87921875 54.80796875 41.19921875 56.16796875 C40.53921875 56.16796875 39.87921875 56.16796875 39.19921875 56.16796875 C38.99506348 56.6980957 38.7909082 57.22822266 38.58056641 57.77441406 C36.61525384 61.17984432 33.88099566 63.73101792 31.09765625 66.46484375 C30.50119293 67.05847717 29.90472961 67.6521106 29.29019165 68.26373291 C27.38952065 70.15323502 25.48200401 72.03565267 23.57421875 73.91796875 C22.28209407 75.2000594 20.99042199 76.48260636 19.69921875 77.765625 C16.53777396 80.90505307 13.37017265 84.03814676 10.19921875 87.16796875 C14.48921875 87.49796875 18.77921875 87.82796875 23.19921875 88.16796875 C23.21984375 87.01296875 23.24046875 85.85796875 23.26171875 84.66796875 C23.96332778 79.09462378 27.11833772 75.81161253 31.19921875 72.16796875 C38.78155346 66.73824601 46.02152281 65.2104992 55.19921875 66.16796875 C59.80382983 67.52555925 63.66825931 69.73289434 67.57421875 72.48046875 C68.44046875 73.03734375 69.30671875 73.59421875 70.19921875 74.16796875 C73.30223559 73.52139866 73.30223559 73.52139866 74.19921875 71.23046875 C74.52921875 70.54984375 74.85921875 69.86921875 75.19921875 69.16796875 C78.42295552 67.0188109 79.46625549 66.78510072 83.19921875 67.16796875 C83.85921875 67.82796875 84.51921875 68.48796875 85.19921875 69.16796875 C84.82421875 72.79296875 84.82421875 72.79296875 84.19921875 76.16796875 C82.71421875 76.66296875 82.71421875 76.66296875 81.19921875 77.16796875 C80.70421875 78.65296875 80.70421875 78.65296875 80.19921875 80.16796875 C79.53921875 80.16796875 78.87921875 80.16796875 78.19921875 80.16796875 C75.71751749 83.91937764 76.12791483 87.49135235 76.32421875 91.79296875 C76.46885646 99.84901632 75.67326773 106.11722764 70.24609375 112.4453125 C61.99866726 120.41878601 53.90792147 121.56244381 42.68649292 121.43234253 C41.20894965 121.4048766 39.73142074 121.37662899 38.25390625 121.34765625 C36.71413378 121.32718953 35.17434824 121.30768541 33.634552 121.28909302 C30.4219728 121.24676269 27.20982611 121.19334912 23.99755859 121.13183594 C19.89461662 121.05408933 15.79186976 121.00342497 11.68842888 120.96095085 C8.51397138 120.92522166 5.33984947 120.87550577 2.16565323 120.82159805 C0.65314943 120.79749466 -0.85942745 120.77757738 -2.37204361 120.76205063 C-4.48960082 120.73813639 -6.60600124 120.69542973 -8.72314453 120.64794922 C-10.52442307 120.61772171 -10.52442307 120.61772171 -12.36209106 120.58688354 C-17.78017757 119.92683089 -22.41620157 117.93533656 -26.55078125 114.29296875 C-27.1025 113.82117188 -27.65421875 113.349375 -28.22265625 112.86328125 C-33.65013655 107.03277023 -33.80078125 100.83448994 -33.80078125 93.16796875 C-32.41179578 85.21287015 -27.76604789 79.79355197 -22.17578125 74.29296875 C-21.6859375 73.79539062 -21.19609375 73.2978125 -20.69140625 72.78515625 C-17.05434409 69.16796875 -17.05434409 69.16796875 -14.80078125 69.16796875 C-14.53265625 68.56984375 -14.26453125 67.97171875 -13.98828125 67.35546875 C-12.80160719 65.16949021 -11.70479012 63.75464281 -9.80078125 62.16796875 C-9.14078125 62.16796875 -8.48078125 62.16796875 -7.80078125 62.16796875 C-7.59211426 61.63333008 -7.38344727 61.09869141 -7.16845703 60.54785156 C-5.2614255 57.22943969 -2.62767261 54.7494557 0.08203125 52.08984375 C0.65629852 51.51840637 1.2305658 50.94696899 1.82223511 50.35821533 C3.65157685 48.5400393 5.48776068 46.72895383 7.32421875 44.91796875 C8.56816649 43.68405546 9.81166145 42.44968553 11.0546875 41.21484375 C14.09764242 38.19390132 17.14675129 35.17929783 20.19921875 32.16796875 C19.52492325 32.15766129 18.85062775 32.14735382 18.15589905 32.13673401 C11.16478293 32.02891106 4.17380208 31.91429432 -2.81713867 31.7956543 C-5.42941469 31.75222751 -8.04172053 31.71055837 -10.65405273 31.6706543 C-14.39966844 31.61313868 -18.14513294 31.54939111 -21.890625 31.484375 C-23.0666478 31.46766251 -24.24267059 31.45095001 -25.45433044 31.43373108 C-26.53537552 31.41378586 -27.61642059 31.39384064 -28.73022461 31.37329102 C-29.6873082 31.35774673 -30.64439178 31.34220245 -31.63047791 31.32618713 C-33.80078125 31.16796875 -33.80078125 31.16796875 -34.80078125 30.16796875 C-35.68662769 22.53606097 -33.5772074 16.41165344 -30.67578125 9.48046875 C-26.60731906 4.46269872 -21.48513539 1.18788101 -15.05929565 0.35830688 C-10.05104142 -0.06376781 -5.02259248 0.00473945 0 0 Z M36.32421875 78.60546875 C35.62296875 79.45109375 34.92171875 80.29671875 34.19921875 81.16796875 C33.30203125 82.21984375 33.30203125 82.21984375 32.38671875 83.29296875 C30.93169271 85.2204766 30.93169271 85.2204766 31.19921875 88.16796875 C35.40718561 88.31367397 39.61450041 88.40217962 43.82421875 88.48046875 C45.01402344 88.52236328 46.20382813 88.56425781 47.4296875 88.60742188 C54.67223906 88.89028245 54.67223906 88.89028245 60.97265625 85.8359375 C63.35376816 83.31276953 63.35376816 83.31276953 64.19921875 80.16796875 C55.18208349 72.87751897 45.80075558 70.57101361 36.32421875 78.60546875 Z " fill="#2C72E2" transform="translate(199.80078125,212.83203125)"/>
<path d="M0 0 C1.23155319 -0.0033284 2.46310638 -0.0066568 3.73197937 -0.01008606 C6.33165108 -0.01513724 8.93132925 -0.01749495 11.53100586 -0.01733398 C15.48757728 -0.01951792 19.44386856 -0.03768634 23.40039062 -0.05664062 C25.9335928 -0.05957551 28.4667963 -0.06155967 31 -0.0625 C32.17323318 -0.06968552 33.34646637 -0.07687103 34.55525208 -0.08427429 C53.1602045 -0.03306762 53.1602045 -0.03306762 60.19921875 6.16796875 C65.01722472 12.81402843 65.83372046 19.16827074 65.19921875 27.16796875 C63.28527369 34.31336365 58.2402504 38.93993108 53.19921875 44.16796875 C52.06226563 45.36486328 52.06226563 45.36486328 50.90234375 46.5859375 C46.92675769 50.68485379 46.92675769 50.68485379 45.19921875 52.16796875 C44.53921875 52.16796875 43.87921875 52.16796875 43.19921875 52.16796875 C42.53921875 53.48796875 41.87921875 54.80796875 41.19921875 56.16796875 C40.53921875 55.83796875 39.87921875 55.50796875 39.19921875 55.16796875 C39.52921875 53.51796875 39.85921875 51.86796875 40.19921875 50.16796875 C40.85921875 50.16796875 41.51921875 50.16796875 42.19921875 50.16796875 C42.19921875 49.17796875 42.19921875 48.18796875 42.19921875 47.16796875 C41.53921875 47.16796875 40.87921875 47.16796875 40.19921875 47.16796875 C40.19921875 46.50796875 40.19921875 45.84796875 40.19921875 45.16796875 C40.85921875 45.16796875 41.51921875 45.16796875 42.19921875 45.16796875 C42.19921875 42.19796875 42.19921875 39.22796875 42.19921875 36.16796875 C41.53921875 36.16796875 40.87921875 36.16796875 40.19921875 36.16796875 C39.79703125 35.20890625 39.79703125 35.20890625 39.38671875 34.23046875 C38.31254123 31.83665189 38.31254123 31.83665189 35.19921875 31.16796875 C29.78566472 30.86154116 24.96494481 30.97946442 20.55157471 34.47174072 C18.73609259 36.16920115 16.99718484 37.92026378 15.26953125 39.70703125 C14.63433563 40.34788666 13.99914001 40.98874207 13.34469604 41.64901733 C11.3282459 43.68776655 9.32619014 45.7400101 7.32421875 47.79296875 C5.95535551 49.1819052 4.58557336 50.56993667 3.21484375 51.95703125 C-0.13443126 55.35028784 -3.47086993 58.75571228 -6.80078125 62.16796875 C-6.80078125 59.16796875 -6.80078125 59.16796875 -4.32226562 56.34887695 C-3.18735649 55.21444355 -2.04417284 54.08825084 -0.89453125 52.96875 C-0.29523804 52.37370163 0.30405518 51.77865326 0.92150879 51.16557312 C2.84049967 49.26339823 4.76964987 47.3719067 6.69921875 45.48046875 C8.00068176 44.19404875 9.30147193 42.90694765 10.6015625 41.61914062 C13.79302244 38.46078873 16.99363373 35.31198078 20.19921875 32.16796875 C19.52492325 32.15766129 18.85062775 32.14735382 18.15589905 32.13673401 C11.16478293 32.02891106 4.17380208 31.91429432 -2.81713867 31.7956543 C-5.42941469 31.75222751 -8.04172053 31.71055837 -10.65405273 31.6706543 C-14.39966844 31.61313868 -18.14513294 31.54939111 -21.890625 31.484375 C-23.0666478 31.46766251 -24.24267059 31.45095001 -25.45433044 31.43373108 C-26.53537552 31.41378586 -27.61642059 31.39384064 -28.73022461 31.37329102 C-29.6873082 31.35774673 -30.64439178 31.34220245 -31.63047791 31.32618713 C-33.80078125 31.16796875 -33.80078125 31.16796875 -34.80078125 30.16796875 C-35.68662769 22.53606097 -33.5772074 16.41165344 -30.67578125 9.48046875 C-26.60731906 4.46269872 -21.48513539 1.18788101 -15.05929565 0.35830688 C-10.05104142 -0.06376781 -5.02259248 0.00473945 0 0 Z " fill="#2CE7F7" transform="translate(199.80078125,212.83203125)"/>
<path d="M0 0 C2.65037637 1.33959241 5.07340914 2.85555986 7.5 4.5625 C8.36625 5.119375 9.2325 5.67625 10.125 6.25 C13.22801684 5.60342991 13.22801684 5.60342991 14.125 3.3125 C14.455 2.631875 14.785 1.95125 15.125 1.25 C18.34873677 -0.89915785 19.39203674 -1.13286803 23.125 -0.75 C24.115 0.24 24.115 0.24 25.125 1.25 C24.75 4.875 24.75 4.875 24.125 8.25 C23.135 8.58 22.145 8.91 21.125 9.25 C20.795 10.24 20.465 11.23 20.125 12.25 C19.465 12.25 18.805 12.25 18.125 12.25 C15.64329874 16.00140889 16.05369608 19.5733836 16.25 23.875 C16.39463771 31.93104757 15.59904898 38.19925889 10.171875 44.52734375 C1.92444851 52.50081726 -6.16629728 53.64447506 -17.38772583 53.51437378 C-18.8652691 53.48690785 -20.34279801 53.45866024 -21.8203125 53.4296875 C-23.36008497 53.40922078 -24.89987051 53.38971666 -26.43966675 53.37112427 C-29.65224595 53.32879394 -32.86439264 53.27538037 -36.07666016 53.21386719 C-40.17960213 53.13612058 -44.28234899 53.08545622 -48.38578987 53.0429821 C-51.56024737 53.00725291 -54.73436928 52.95753702 -57.90856552 52.9036293 C-59.42106932 52.87952591 -60.9336462 52.85960863 -62.44626236 52.84408188 C-64.56381957 52.82016764 -66.68021999 52.77746098 -68.79736328 52.72998047 C-69.99821564 52.7098288 -71.19906799 52.68967712 -72.43630981 52.66891479 C-76.46366612 52.17828637 -79.2347124 51.00011242 -82.875 49.25 C-81.885 48.755 -81.885 48.755 -80.875 48.25 C-80.09044434 48.55534668 -79.30588867 48.86069336 -78.49755859 49.17529297 C-73.2929415 50.71935042 -68.31327612 50.49568334 -62.9140625 50.4453125 C-61.19550552 50.44106766 -61.19550552 50.44106766 -59.44223022 50.43673706 C-55.79471245 50.42557135 -52.14744315 50.40047299 -48.5 50.375 C-46.02213897 50.36496555 -43.54427408 50.35584051 -41.06640625 50.34765625 C-35.00251986 50.3256438 -28.93877769 50.29220194 -22.875 50.25 C-23.49568359 49.72253174 -24.11636719 49.19506348 -24.75585938 48.65161133 C-25.56861328 47.9480249 -26.38136719 47.24443848 -27.21875 46.51953125 C-28.02505859 45.82706299 -28.83136719 45.13459473 -29.66210938 44.42114258 C-33.81572127 40.34589207 -36.74097163 34.65432056 -36.97265625 28.76953125 C-36.94010417 26.26302083 -36.90755208 23.75651042 -36.875 21.25 C-42.155 21.25 -47.435 21.25 -52.875 21.25 C-51.885 19.6 -50.895 17.95 -49.875 16.25 C-49.215 16.58 -48.555 16.91 -47.875 17.25 C-48.535 17.91 -49.195 18.57 -49.875 19.25 C-45.585 19.58 -41.295 19.91 -36.875 20.25 C-36.854375 19.095 -36.83375 17.94 -36.8125 16.75 C-36.11089097 11.17665503 -32.95588103 7.89364378 -28.875 4.25 C-20.26754552 -1.91381274 -9.99401498 -4.30250814 0 0 Z M-23.75 10.6875 C-24.45125 11.533125 -25.1525 12.37875 -25.875 13.25 C-26.7721875 14.301875 -26.7721875 14.301875 -27.6875 15.375 C-29.14252604 17.30250785 -29.14252604 17.30250785 -28.875 20.25 C-24.66703314 20.39570522 -20.45971834 20.48421087 -16.25 20.5625 C-15.06019531 20.60439453 -13.87039062 20.64628906 -12.64453125 20.68945312 C-5.40197969 20.9723137 -5.40197969 20.9723137 0.8984375 17.91796875 C3.27954941 15.39480078 3.27954941 15.39480078 4.125 12.25 C-4.89213526 4.95955022 -14.27346317 2.65304486 -23.75 10.6875 Z " fill="#73C3DC" transform="translate(259.875,280.75)"/>
<path d="M0 0 C1.23155319 -0.0033284 2.46310638 -0.0066568 3.73197937 -0.01008606 C6.33165108 -0.01513724 8.93132925 -0.01749495 11.53100586 -0.01733398 C15.48757728 -0.01951792 19.44386856 -0.03768634 23.40039062 -0.05664062 C25.9335928 -0.05957551 28.4667963 -0.06155967 31 -0.0625 C32.17323318 -0.06968552 33.34646637 -0.07687103 34.55525208 -0.08427429 C53.1602045 -0.03306762 53.1602045 -0.03306762 60.19921875 6.16796875 C65.01722472 12.81402843 65.83372046 19.16827074 65.19921875 27.16796875 C63.28527369 34.31336365 58.2402504 38.93993108 53.19921875 44.16796875 C52.06226563 45.36486328 52.06226563 45.36486328 50.90234375 46.5859375 C46.92675769 50.68485379 46.92675769 50.68485379 45.19921875 52.16796875 C44.53921875 52.16796875 43.87921875 52.16796875 43.19921875 52.16796875 C42.53921875 53.48796875 41.87921875 54.80796875 41.19921875 56.16796875 C40.53921875 55.83796875 39.87921875 55.50796875 39.19921875 55.16796875 C39.52921875 53.51796875 39.85921875 51.86796875 40.19921875 50.16796875 C40.85921875 50.16796875 41.51921875 50.16796875 42.19921875 50.16796875 C42.19921875 49.17796875 42.19921875 48.18796875 42.19921875 47.16796875 C41.53921875 47.16796875 40.87921875 47.16796875 40.19921875 47.16796875 C40.19921875 46.50796875 40.19921875 45.84796875 40.19921875 45.16796875 C40.85921875 45.16796875 41.51921875 45.16796875 42.19921875 45.16796875 C42.19921875 42.19796875 42.19921875 39.22796875 42.19921875 36.16796875 C41.53921875 36.16796875 40.87921875 36.16796875 40.19921875 36.16796875 C39.79703125 35.20890625 39.79703125 35.20890625 39.38671875 34.23046875 C38.31254123 31.83665189 38.31254123 31.83665189 35.19921875 31.16796875 C29.78566472 30.86154116 24.96494481 30.97946442 20.55157471 34.47174072 C18.73609259 36.16920115 16.99718484 37.92026378 15.26953125 39.70703125 C14.63433563 40.34788666 13.99914001 40.98874207 13.34469604 41.64901733 C11.3282459 43.68776655 9.32619014 45.7400101 7.32421875 47.79296875 C5.95535551 49.1819052 4.58557336 50.56993667 3.21484375 51.95703125 C-0.13443126 55.35028784 -3.47086993 58.75571228 -6.80078125 62.16796875 C-6.80078125 59.16796875 -6.80078125 59.16796875 -4.32226562 56.34887695 C-3.18735649 55.21444355 -2.04417284 54.08825084 -0.89453125 52.96875 C-0.29523804 52.37370163 0.30405518 51.77865326 0.92150879 51.16557312 C2.84049967 49.26339823 4.76964987 47.3719067 6.69921875 45.48046875 C8.00068176 44.19404875 9.30147193 42.90694765 10.6015625 41.61914062 C13.79302244 38.46078873 16.99363373 35.31198078 20.19921875 32.16796875 C19.52492325 32.15766129 18.85062775 32.14735382 18.15589905 32.13673401 C11.16478293 32.02891106 4.17380208 31.91429432 -2.81713867 31.7956543 C-5.42941469 31.75222751 -8.04172053 31.71055837 -10.65405273 31.6706543 C-14.39966844 31.61313868 -18.14513294 31.54939111 -21.890625 31.484375 C-23.0666478 31.46766251 -24.24267059 31.45095001 -25.45433044 31.43373108 C-26.53537552 31.41378586 -27.61642059 31.39384064 -28.73022461 31.37329102 C-29.6873082 31.35774673 -30.64439178 31.34220245 -31.63047791 31.32618713 C-33.80078125 31.16796875 -33.80078125 31.16796875 -34.80078125 30.16796875 C-35.68662769 22.53606097 -33.5772074 16.41165344 -30.67578125 9.48046875 C-26.60731906 4.46269872 -21.48513539 1.18788101 -15.05929565 0.35830688 C-10.05104142 -0.06376781 -5.02259248 0.00473945 0 0 Z M-28.80078125 12.16796875 C-31.40590141 15.85923618 -31.9202783 19.44468398 -31.859375 23.890625 C-31.85091553 24.6937915 -31.84245605 25.49695801 -31.83374023 26.32446289 C-31.82286377 26.93281982 -31.8119873 27.54117676 -31.80078125 28.16796875 C-30.64255859 28.16273193 -29.48433594 28.15749512 -28.29101562 28.15209961 C-23.91488444 28.13373682 -19.53875652 28.12242478 -15.16259766 28.11303711 C-13.28336002 28.10806728 -11.40412613 28.10128909 -9.52490234 28.0925293 C-6.79393021 28.08013567 -4.06302892 28.07358012 -1.33203125 28.0703125 C-0.4367572 28.06823288 0.45851685 28.06615326 1.38092041 28.06401062 C5.58331819 28.0750625 9.74025923 28.16964749 13.92871094 28.5246582 C14.65658813 28.58589371 15.38446533 28.64712921 16.13439941 28.71022034 C18.07249524 28.88919825 20.00766217 29.09914514 21.94238281 29.31152344 C25.90502509 29.13685825 27.48327534 28.03994253 30.44921875 25.48046875 C31.73447302 24.07440058 32.9861839 22.63679573 34.19921875 21.16796875 C34.9365625 20.46027344 35.67390625 19.75257813 36.43359375 19.0234375 C38.42900223 17.35337407 38.42900223 17.35337407 38.19921875 15.16796875 C38.85921875 15.16796875 39.51921875 15.16796875 40.19921875 15.16796875 C40.19921875 14.50796875 40.19921875 13.84796875 40.19921875 13.16796875 C45.81493665 10.61536971 51.17005021 9.52365006 57.19921875 11.16796875 C57.00450764 9.21797746 57.00450764 9.21797746 56.19921875 7.16796875 C54.26591272 6.076306 54.26591272 6.076306 52.19921875 5.16796875 C51.20921875 3.68296875 51.20921875 3.68296875 50.19921875 2.16796875 C47.40699866 1.71405002 47.40699866 1.71405002 44.0847168 1.7956543 C42.15712776 1.78631111 42.15712776 1.78631111 40.19059753 1.77677917 C38.78070695 1.78546974 37.37082011 1.79478801 35.9609375 1.8046875 C34.51845805 1.80520611 33.07597789 1.80468839 31.63349915 1.80317688 C28.60622643 1.80326669 25.57921952 1.81371025 22.55200195 1.83178711 C18.67825176 1.85441392 14.80489216 1.85503041 10.93109417 1.84826946 C7.9498805 1.84492062 4.96875524 1.85157777 1.98755836 1.8613987 C0.55986812 1.86523981 -0.86783198 1.86640344 -2.2955265 1.86481285 C-4.29640542 1.86444035 -6.297271 1.87857771 -8.2980957 1.89331055 C-10.00446953 1.90022163 -10.00446953 1.90022163 -11.74531555 1.90727234 C-19.17241112 2.54096205 -23.84674539 6.93711778 -28.80078125 12.16796875 Z " fill="#5CECFA" transform="translate(199.80078125,212.83203125)"/>
<path d="M0 0 C5.94 0 11.88 0 18 0 C18.2475 1.815 18.495 3.63 18.75 5.5 C20.38023669 15.05655994 23.38586952 20.11123899 31 26 C31.99 26.99 31.99 26.99 33 28 C31.36320286 29.63679714 29.49758973 29.14395599 27.23999023 29.16113281 C25.71721718 29.17554413 25.71721718 29.17554413 24.16368103 29.19024658 C22.50291283 29.1966214 22.50291283 29.1966214 20.80859375 29.203125 C19.10788475 29.21167511 19.10788475 29.21167511 17.37281799 29.22039795 C14.96429381 29.22986889 12.55575654 29.23639019 10.1472168 29.24023438 C6.47746737 29.24989479 2.8082886 29.28088028 -0.86132812 29.3125 C-3.20051751 29.3190343 -5.5397109 29.32428309 -7.87890625 29.328125 C-8.97191544 29.3404718 -10.06492462 29.3528186 -11.1910553 29.36553955 C-18.49531464 29.34440592 -24.52367976 28.76322891 -30.4375 24.0625 C-32.03851948 21.94915429 -32.39121433 20.52211206 -33 18 C-33.99 17.67 -34.98 17.34 -36 17 C-35.505 15.515 -35.505 15.515 -35 14 C-33.7625 14.99 -33.7625 14.99 -32.5 16 C-28.59052497 18.62175695 -25.62708002 18.37315161 -21 18 C-18.64470719 17.58268982 -18.64470719 17.58268982 -17 17 C-17 16.34 -17 15.68 -17 15 C-16.071875 14.87625 -16.071875 14.87625 -15.125 14.75 C-12.84760682 14.22582463 -12.84760682 14.22582463 -12.1171875 12.1875 C-10.78446759 9.5779785 -9.21456611 8.1551782 -7 6.25 C-6.29875 5.63640625 -5.5975 5.0228125 -4.875 4.390625 C-3 3 -3 3 -1 3 C-0.67 2.01 -0.34 1.02 0 0 Z " fill="#2112D1" transform="translate(205,303)"/>
<path d="M0 0 C1.13355842 0.75819149 2.25957506 1.5278751 3.375 2.3125 C4.24125 2.869375 5.1075 3.42625 6 4 C9.10301684 3.35342991 9.10301684 3.35342991 10 1.0625 C10.33 0.381875 10.66 -0.29875 11 -1 C14.22373677 -3.14915785 15.26703674 -3.38286803 19 -3 C19.66 -2.34 20.32 -1.68 21 -1 C20.625 2.625 20.625 2.625 20 6 C19.01 6.33 18.02 6.66 17 7 C16.67 7.99 16.34 8.98 16 10 C14.34151823 11.01351664 12.67334039 12.01120795 11 13 C10.113125 13.886875 9.22625 14.77375 8.3125 15.6875 C7.549375 16.450625 6.78625 17.21375 6 18 C5.34 18 4.68 18 4 18 C3.73807861 18.58426758 3.47615723 19.16853516 3.20629883 19.77050781 C1.08225494 23.69618455 -2.19061045 26.60132588 -5.3125 29.75 C-5.97701172 30.44738281 -6.64152344 31.14476562 -7.32617188 31.86328125 C-7.97779297 32.52199219 -8.62941406 33.18070312 -9.30078125 33.859375 C-9.89028564 34.46233398 -10.47979004 35.06529297 -11.0871582 35.68652344 C-13.60507925 37.41548518 -15.00198666 37.45872366 -18 37 C-19.8527832 35.76245117 -19.8527832 35.76245117 -21.55078125 34.04296875 C-22.16630859 33.42486328 -22.78183594 32.80675781 -23.41601562 32.16992188 C-24.35477539 31.18862305 -24.35477539 31.18862305 -25.3125 30.1875 C-25.95767578 29.54490234 -26.60285156 28.90230469 -27.26757812 28.24023438 C-32 23.40765542 -32 23.40765542 -32 20 C-32.99 20 -33.98 20 -35 20 C-34.5020163 16.26512223 -34.12508244 14.18762365 -32 11 C-31.61500109 9.34450469 -31.27206865 7.6777567 -31 6 C-31.99 6.66 -32.98 7.32 -34 8 C-34.99 8 -35.98 8 -37 8 C-35.23742831 3.24105643 -31.53850541 0.42790929 -27.25 -1.984375 C-18.135744 -6.00983807 -8.44625332 -4.97725642 0 0 Z M-27.875 8.4375 C-28.57625 9.283125 -29.2775 10.12875 -30 11 C-30.8971875 12.051875 -30.8971875 12.051875 -31.8125 13.125 C-33.26752604 15.05250785 -33.26752604 15.05250785 -33 18 C-28.79203314 18.14570522 -24.58471834 18.23421087 -20.375 18.3125 C-19.18519531 18.35439453 -17.99539062 18.39628906 -16.76953125 18.43945312 C-9.52697969 18.7223137 -9.52697969 18.7223137 -3.2265625 15.66796875 C-0.84545059 13.14480078 -0.84545059 13.14480078 0 10 C-9.01713526 2.70955022 -18.39846317 0.40304486 -27.875 8.4375 Z " fill="#46BA75" transform="translate(264,283)"/>
<path d="M0 0 C1.67542976 0.28604898 3.34385343 0.61781233 5 1 C5 1.66 5 2.32 5 3 C4.34 3 3.68 3 3 3 C3.268125 3.53625 3.53625 4.0725 3.8125 4.625 C4.04522311 7.57282601 3.4200144 8.04811495 1.5625 10.25 C0.716875 11.1575 -0.12875 12.065 -1 13 C3.95 13.33 8.9 13.66 14 14 C14 14.33 14 14.66 14 15 C12.75863281 15.01417969 11.51726562 15.02835937 10.23828125 15.04296875 C8.59631757 15.089882 6.95439163 15.13812932 5.3125 15.1875 C4.49587891 15.19330078 3.67925781 15.19910156 2.83789062 15.20507812 C-1.49104705 15.3628127 -3.41734816 15.51937202 -6.85546875 18.35546875 C-7.91701172 19.66451172 -7.91701172 19.66451172 -9 21 C-10.19425951 22.05777271 -11.40079453 23.10203379 -12.625 24.125 C-14.37481899 25.58978061 -16.0182099 27.01928635 -17.5859375 28.6796875 C-19 30 -19 30 -21 30 C-21 30.66 -21 31.32 -21 32 C-24.70556651 34.47037767 -28.6985288 34.7086715 -33 34 C-35.30399674 32.8820269 -36.9810343 31.61517256 -39 30 C-39.33 30.66 -39.66 31.32 -40 32 C-39.071875 32.0928125 -39.071875 32.0928125 -38.125 32.1875 C-36 33 -36 33 -34.875 35.375 C-34.58625 36.24125 -34.2975 37.1075 -34 38 C-33.34 38.99 -32.68 39.98 -32 41 C-36.83885365 38.88563134 -39.6848832 35.72858823 -42 31 C-42.48017627 27.27128428 -42.3707306 23.73476752 -42 20 C-41.34 20 -40.68 20 -40 20 C-39.87625 18.9275 -39.7525 17.855 -39.625 16.75 C-38.67619048 11.05714286 -38.67619048 11.05714286 -37 9 C-33.03271249 7.50291037 -29.24395935 6.4105612 -25 7 C-22.73095191 8.76481518 -21.6196228 10.57056581 -20 13 C-19.01904252 14.01868662 -18.02297922 15.02351983 -17 16 C-17.33 15.01 -17.66 14.02 -18 13 C-15 12 -15 12 -12.625 12.5625 C-9.41774857 13.0970419 -7.84528751 12.50167952 -5 11 C-4.67 10.34 -4.34 9.68 -4 9 C-3.01 9 -2.02 9 -1 9 C-1.020625 7.700625 -1.04125 6.40125 -1.0625 5.0625 C-1.08399454 3.70834367 -1.07148199 2.35243917 -1 1 C-0.67 0.67 -0.34 0.34 0 0 Z " fill="#3A35E6" transform="translate(209,288)"/>
<path d="M0 0 C0.99 0 1.98 0 3 0 C4.0390254 1.64262108 5.03023974 3.3155586 6 5 C7.75471679 7.01276338 9.50377458 8.91851643 11.375 10.8125 C11.84421875 11.31458984 12.3134375 11.81667969 12.796875 12.33398438 C14.92996741 14.49948565 16.37194511 15.90749432 19.43164062 16.3581543 C22.7008041 15.9022738 23.65106717 14.89341598 25.8828125 12.5 C26.57503906 11.778125 27.26726562 11.05625 27.98046875 10.3125 C28.68816406 9.549375 29.39585937 8.78625 30.125 8 C31.53735577 6.49348718 32.95632855 4.99314207 34.3828125 3.5 C35.00559082 2.8296875 35.62836914 2.159375 36.27001953 1.46875 C38 0 38 0 41 0 C41.79915411 5.18956866 42.08063875 9.31438828 39.171875 13.8515625 C34.71392458 18.85568566 30.58157945 23.4480003 23.73046875 24.50390625 C16.64853466 24.62102754 11.94136454 24.44623645 6.55078125 19.60546875 C6.03902344 19.07566406 5.52726563 18.54585938 5 18 C4.46117187 17.48179687 3.92234375 16.96359375 3.3671875 16.4296875 C-0.59111572 12.29043328 -0.18017627 7.38719586 -0.0703125 2.01171875 C-0.04710937 1.34785156 -0.02390625 0.68398438 0 0 Z " fill="#1A26BC" transform="translate(229,303)"/>
<path d="M0 0 C0.26574755 3.10038807 0.26195772 4.60534454 -1.48828125 7.2421875 C-3.36974186 10.67451616 -3.40037703 13.04212576 -3.375 16.9375 C-3.38273437 18.12214844 -3.39046875 19.30679687 -3.3984375 20.52734375 C-2.76684994 26.03206278 -0.7535362 29.8540779 3.5625 33.3125 C4.16191406 33.80363281 4.76132813 34.29476562 5.37890625 34.80078125 C8.85194821 37.36999542 11.85878638 37.29101368 16.125 37.5625 C17.40632813 37.64628906 18.68765625 37.73007812 20.0078125 37.81640625 C20.99523437 37.87699219 21.98265625 37.93757813 23 38 C19.97455666 40.01696222 19.38932618 40.25811096 16 40.1875 C15.319375 40.18105469 14.63875 40.17460937 13.9375 40.16796875 C12 40 12 40 9 39 C9 39.99 9 40.98 9 42 C3.54219 41.86355475 0.6761711 39.60780207 -3.16796875 36.04296875 C-9.35894161 29.13917598 -10.11587302 21.92222248 -10 13 C-15.28 13 -20.56 13 -26 13 C-25.01 11.35 -24.02 9.7 -23 8 C-22.34 8.33 -21.68 8.66 -21 9 C-21.66 9.66 -22.32 10.32 -23 11 C-18.71 11.33 -14.42 11.66 -10 12 C-9.87625 10.72125 -9.7525 9.4425 -9.625 8.125 C-9.25 4.25 -9.25 4.25 -7 2 C-2.55555556 0 -2.55555556 0 0 0 Z " fill="#499AD3" transform="translate(233,289)"/>
<path d="M0 0 C-2.86177057 1.43088528 -4.93375773 0.59991697 -8 0 C-8 -0.66 -8 -1.32 -8 -2 C-11.96 -2 -15.92 -2 -20 -2 C-19.34 -1.34 -18.68 -0.68 -18 0 C-18.33 0.66 -18.66 1.32 -19 2 C-17.2365625 1.9690625 -17.2365625 1.9690625 -15.4375 1.9375 C-5.44724 1.97292645 -5.44724 1.97292645 -2.0625 4.375 C-1 6 -1 6 -1 9 C-1.495 8.731875 -1.99 8.46375 -2.5 8.1875 C-3.325 7.795625 -4.15 7.40375 -5 7 C-5.55945313 6.71253906 -6.11890625 6.42507813 -6.6953125 6.12890625 C-12.40177902 3.52980713 -17.13027166 3.86373833 -23 6 C-24.34600663 6.98287534 -25.68168742 7.98027959 -27 9 C-27.66 9 -28.32 9 -29 9 C-30.52299523 11.93720508 -31.80100302 14.9168649 -33 18 C-32.34 17.67 -31.68 17.34 -31 17 C-29.0406396 16.91489795 -27.07837206 16.89282344 -25.1171875 16.90234375 C-23.95058594 16.90556641 -22.78398437 16.90878906 -21.58203125 16.91210938 C-20.35871094 16.92048828 -19.13539063 16.92886719 -17.875 16.9375 C-16.64394531 16.94201172 -15.41289062 16.94652344 -14.14453125 16.95117188 C-11.09630608 16.9629867 -8.04817686 16.97945972 -5 17 C-5.33 17.66 -5.66 18.32 -6 19 C-15.57 19 -25.14 19 -35 19 C-34 14 -34 14 -32 11 C-31.61500109 9.34450469 -31.27206865 7.6777567 -31 6 C-31.99 6.66 -32.98 7.32 -34 8 C-34.99 8 -35.98 8 -37 8 C-35.23742831 3.24105643 -31.53850541 0.42790929 -27.25 -1.984375 C-18.04920586 -6.04805908 -8.57452602 -4.85023694 0 0 Z " fill="#93D1DB" transform="translate(264,283)"/>
<path d="M0 0 C0.66 0.33 1.32 0.66 2 1 C1.360625 1.598125 0.72125 2.19625 0.0625 2.8125 C-3.49826614 6.58907015 -3.38488935 10.54454278 -3.36328125 15.5 C-2.78387694 19.48729848 -0.74225345 21.12397809 2 24 C2.8125 26.875 2.8125 26.875 3 29 C2.01 29 1.02 29 0 29 C-2 27 -2 27 -2.375 25 C-2.82377157 22.87379759 -2.82377157 22.87379759 -4.6875 21.75 C-9.19988512 20.28652374 -13.45879993 20.93148234 -18 22 C-18.12375 22.515625 -18.2475 23.03125 -18.375 23.5625 C-19.18641628 26.72702351 -20.0945913 29.86124985 -21 33 C-21.66 33 -22.32 33 -23 33 C-23 34.65 -23 36.3 -23 38 C-23.33 38 -23.66 38 -24 38 C-23.97285395 29.09609653 -23.31603119 23.41688598 -17 17 C-16.15824219 16.10667969 -15.31648437 15.21335937 -14.44921875 14.29296875 C-12.02168656 11.78112285 -9.62561664 9.30449806 -7 7 C-6.34 7 -5.68 7 -5 7 C-4.731875 6.401875 -4.46375 5.80375 -4.1875 5.1875 C-3.01506533 3.02775192 -1.80630718 1.64209744 0 0 Z " fill="#3759EE" transform="translate(190,275)"/>
<path d="M0 0 C0 1.32 0 2.64 0 4 C0.5775 4.268125 1.155 4.53625 1.75 4.8125 C4 6 4 6 6 7.6875 C7.86293016 9.18483303 7.86293016 9.18483303 9.875 8.9375 C12.25035977 7.96991584 12.25035977 7.96991584 15.0625 5.875 C16.031875 5.25625 17.00125 4.6375 18 4 C18.99 4.33 19.98 4.66 21 5 C18.71627691 10.1415665 16.5367753 14.45910221 12 18 C9.796875 18.55078125 9.796875 18.55078125 7 18 C4.29071032 15.9906905 2.01493419 13.6203998 -0.3125 11.1875 C-1.28026367 10.22360352 -1.28026367 10.22360352 -2.26757812 9.24023438 C-7 4.40765542 -7 4.40765542 -7 1 C-7.99 0.67 -8.98 0.34 -10 0 C-6.30458414 -0.95024979 -3.69541586 -0.95024979 0 0 Z " fill="#2FBA6F" transform="translate(239,302)"/>
<path d="M0 0 C1.23155319 -0.0033284 2.46310638 -0.0066568 3.73197937 -0.01008606 C6.33165108 -0.01513724 8.93132925 -0.01749495 11.53100586 -0.01733398 C15.48757728 -0.01951792 19.44386856 -0.03768634 23.40039062 -0.05664062 C25.9335928 -0.05957551 28.4667963 -0.06155967 31 -0.0625 C32.17323318 -0.06968552 33.34646637 -0.07687103 34.55525208 -0.08427429 C43.80258981 -0.05882271 52.79388878 0.02696341 60.19921875 6.16796875 C62.13671875 8.23046875 62.13671875 8.23046875 63.19921875 10.16796875 C62.86921875 11.15796875 62.53921875 12.14796875 62.19921875 13.16796875 C61.83570313 12.69746094 61.4721875 12.22695312 61.09765625 11.7421875 C60.59492188 11.11957031 60.0921875 10.49695313 59.57421875 9.85546875 C59.08695312 9.24058594 58.5996875 8.62570313 58.09765625 7.9921875 C53.8172292 3.87910224 49.46988561 2.79239136 43.66235352 2.7956543 C42.38405167 2.78942551 41.10574982 2.78319672 39.78871155 2.77677917 C38.40601204 2.78546903 37.02331637 2.79478721 35.640625 2.8046875 C34.20865377 2.80520684 32.77668183 2.80468628 31.3447113 2.80317688 C28.34973445 2.80326636 25.35502811 2.81364468 22.36010742 2.83178711 C18.5359921 2.8544529 14.71227224 2.85501947 10.88810825 2.84826946 C7.9325565 2.84491501 4.97709361 2.85158759 2.02155876 2.8613987 C0.6122681 2.86522712 -0.79703248 2.86640878 -2.20632744 2.86481285 C-4.18241492 2.86443871 -6.15848864 2.87861195 -8.13452148 2.89331055 C-9.81613625 2.90022163 -9.81613625 2.90022163 -11.53172302 2.90727234 C-18.92168517 3.49659699 -23.88567196 5.75753836 -28.80078125 11.16796875 C-30.7299147 14.35107721 -30.7299147 14.35107721 -31.80078125 17.16796875 C-32.55078125 15.54296875 -32.55078125 15.54296875 -32.80078125 13.16796875 C-30.07055739 7.45931885 -25.47625266 3.87771949 -19.80078125 1.16796875 C-13.24073184 -0.12812031 -6.66608417 0.00629029 0 0 Z " fill="#A6F5F5" transform="translate(199.80078125,212.83203125)"/>
<path d="M0 0 C0.66 0.33 1.32 0.66 2 1 C1.38511719 1.49628906 0.77023438 1.99257812 0.13671875 2.50390625 C-6.31069344 7.92302304 -9.68705216 12.16359028 -10.5625 20.72265625 C-10.64628906 21.52582275 -10.73007813 22.32898926 -10.81640625 23.15649414 C-10.87699219 23.76485107 -10.93757812 24.37320801 -11 25 C-9.83654053 24.96447021 -8.67308105 24.92894043 -7.47436523 24.89233398 C-3.08539721 24.76023664 1.30379822 24.63771199 5.69311523 24.51782227 C7.57925576 24.46502381 9.46532913 24.40975834 11.35131836 24.35180664 C22.64577073 24.00664001 33.7393279 23.95692219 45 25 C45 25.66 45 26.32 45 27 C25.53 27 6.06 27 -14 27 C-14 18 -14 18 -13 14 C-12.34 14 -11.68 14 -11 14 C-10.7834375 12.7625 -10.7834375 12.7625 -10.5625 11.5 C-8.2721937 6.3697139 -4.30422597 3.48943422 0 0 Z " fill="#61D6E7" transform="translate(179,216)"/>
<path d="M0 0 C0.99 0.33 1.98 0.66 3 1 C2.34 2.65 1.68 4.3 1 6 C2.65 5.67 4.3 5.34 6 5 C5.06725891 6.12894876 4.12859878 7.25300876 3.1875 8.375 C2.66542969 9.00148438 2.14335937 9.62796875 1.60546875 10.2734375 C0 12 0 12 -3 14 C-2.34 12.02 -1.68 10.04 -1 8 C-3.70679384 8.97745333 -5.78634735 9.81973058 -8 11.6875 C-10 13 -10 13 -12.375 13 C-16.09070279 11.58449417 -18.17353924 9.82646076 -21 7 C-21 5.68 -21 4.36 -21 3 C-20.15236084 2.970271 -20.15236084 2.970271 -19.28759766 2.93994141 C-16.73292003 2.84481764 -14.17907459 2.73508942 -11.625 2.625 C-10.29082031 2.57859375 -10.29082031 2.57859375 -8.9296875 2.53125 C-8.07890625 2.49257813 -7.228125 2.45390625 -6.3515625 2.4140625 C-5.17327881 2.36693115 -5.17327881 2.36693115 -3.97119141 2.31884766 C-1.76997061 2.1600535 -1.76997061 2.1600535 0 0 Z " fill="#3FB081" transform="translate(260,299)"/>
<path d="M0 0 C3.63 0.33 7.26 0.66 11 1 C10.34 1.61875 9.68 2.2375 9 2.875 C6.7715451 4.75637427 6.7715451 4.75637427 7 7 C7.5775 6.690625 8.155 6.38125 8.75 6.0625 C10.84294184 5.07416636 12.74535275 4.4831387 15 4 C15 4.99 15 5.98 15 7 C15.59690643 6.99555878 16.19381287 6.99111755 16.80880737 6.98654175 C23.00516371 6.94239419 29.20147558 6.91216941 35.39794922 6.89013672 C37.71242079 6.88006108 40.02687959 6.86640025 42.34130859 6.84912109 C45.66246693 6.82494135 48.9834574 6.8135327 52.3046875 6.8046875 C53.34430634 6.79436493 54.38392517 6.78404236 55.45504761 6.77340698 C56.41589264 6.77325592 57.37673767 6.77310486 58.36669922 6.77294922 C59.63910965 6.76628738 59.63910965 6.76628738 60.93722534 6.75949097 C63 7 63 7 65 9 C63.36320286 10.63679714 61.49758973 10.14395599 59.23999023 10.16113281 C57.71721718 10.17554413 57.71721718 10.17554413 56.16368103 10.19024658 C54.50291283 10.1966214 54.50291283 10.1966214 52.80859375 10.203125 C51.10788475 10.21167511 51.10788475 10.21167511 49.37281799 10.22039795 C46.96429381 10.22986889 44.55575654 10.23639019 42.1472168 10.24023438 C38.47746737 10.24989479 34.8082886 10.28088028 31.13867188 10.3125 C28.79948249 10.3190343 26.4602891 10.32428309 24.12109375 10.328125 C22.48157997 10.3466452 22.48157997 10.3466452 20.8089447 10.36553955 C13.45669457 10.34426706 7.43690339 9.74952271 1.5 5 C0 3 0 3 0 0 Z " fill="#2D1DAE" transform="translate(173,322)"/>
<path d="M0 0 C-0.33 0.99 -0.66 1.98 -1 3 C-8.98904114 6.71063772 -17.09727807 6.43922716 -25.7265625 6.3984375 C-27.24392842 6.40046247 -28.76129339 6.40337742 -30.27865601 6.40713501 C-33.44400384 6.4115358 -36.60909614 6.40519856 -39.77441406 6.39111328 C-43.81712916 6.37399306 -47.85924785 6.38389439 -51.9019413 6.40183067 C-55.02992191 6.41270456 -58.15776256 6.40920623 -61.28574753 6.4014473 C-62.77598518 6.39945676 -64.26623585 6.40186397 -65.75645828 6.40888596 C-67.84269852 6.41656382 -69.92799002 6.40481116 -72.01416016 6.38818359 C-73.19724762 6.38579681 -74.38033508 6.38341003 -75.59927368 6.38095093 C-79.62818002 5.92963099 -82.36355906 4.75179939 -86 3 C-85.34 2.67 -84.68 2.34 -84 2 C-83.09071747 2.30469208 -82.18143494 2.60938416 -81.24459839 2.92330933 C-77.9538078 4.01532846 -75.53332325 4.24237033 -72.08642578 4.22705078 C-70.94569611 4.22689972 -69.80496643 4.22674866 -68.62966919 4.22659302 C-67.41383148 4.21627045 -66.19799377 4.20594788 -64.9453125 4.1953125 C-63.06028519 4.19106766 -63.06028519 4.19106766 -61.13717651 4.18673706 C-57.81299136 4.17746123 -54.48908576 4.15952381 -51.16497803 4.1373291 C-47.76625979 4.11678812 -44.36751256 4.10771778 -40.96875 4.09765625 C-34.31242333 4.07563379 -27.65622779 4.04218433 -21 4 C-21 3.01 -21 2.02 -21 1 C-19.86111328 1.01740234 -19.86111328 1.01740234 -18.69921875 1.03515625 C-17.70535156 1.04417969 -16.71148437 1.05320312 -15.6875 1.0625 C-14.70136719 1.07410156 -13.71523437 1.08570313 -12.69921875 1.09765625 C-8.35492315 0.94048202 -4.48051689 -0.08453805 0 0 Z " fill="#84B7D7" transform="translate(263,327)"/>
<path d="M0 0 C0.99 0.33 1.98 0.66 3 1 C2.49257235 5.6209745 1.37081829 8.5259759 -1.3125 12.3125 C-2.20388672 13.60607422 -2.20388672 13.60607422 -3.11328125 14.92578125 C-5.18580001 17.20426461 -5.99393081 17.69314228 -9 18 C-10.58211573 18.06548492 -12.16670081 18.08578381 -13.75 18.0625 C-14.54921875 18.05347656 -15.3484375 18.04445313 -16.171875 18.03515625 C-16.77515625 18.02355469 -17.3784375 18.01195312 -18 18 C-17.1028125 17.6596875 -17.1028125 17.6596875 -16.1875 17.3125 C-13.39535042 15.63721025 -12.64214222 13.80083138 -11 11 C-9.13615695 9.00129132 -7.27364227 7.08284911 -5.3125 5.1875 C-4.80138672 4.68541016 -4.29027344 4.18332031 -3.76367188 3.66601562 C-2.51365638 2.43936491 -1.2574532 1.21902509 0 0 Z " fill="#1F1CD2" transform="translate(265,307)"/>
<path d="M0 0 C2 3 2 3 1.5625 5.25 C-0.63336951 9.11473034 -3.56150454 12.18594829 -7 15 C-7.66 15 -8.32 15 -9 15 C-9.33 15.99 -9.66 16.98 -10 18 C-13.0625 19.1875 -13.0625 19.1875 -16 20 C-16 15.78825048 -15.80255323 14.9063515 -13 12 C-12.01 12 -11.02 12 -10 12 C-9.9175 11.071875 -9.835 10.14375 -9.75 9.1875 C-9 6 -9 6 -7.1875 4.25 C-5.15509313 3.08862465 -3.10759995 2.01746205 -1 1 C-0.67 0.67 -0.34 0.34 0 0 Z " fill="#3CB871" transform="translate(277,286)"/>
<path d="M0 0 C0.99 0.33 1.98 0.66 3 1 C1.68867299 3.92526794 0.34365231 5.82995156 -2 8 C-4.54204129 10.47686074 -6.92208161 12.90145616 -9.125 15.6875 C-11 18 -11 18 -14 20 C-15.19232613 22.05003955 -15.19232613 22.05003955 -16 24 C-17.65 24 -19.3 24 -21 24 C-20.47113167 19.91664456 -18.40370962 18.05646982 -15.52734375 15.234375 C-14.62822266 14.34492188 -13.72910156 13.45546875 -12.80273438 12.5390625 C-11.85720703 11.61867187 -10.91167969 10.69828125 -9.9375 9.75 C-8.97783027 8.80538327 -8.01883771 7.86007805 -7.06054688 6.9140625 C-4.71361172 4.60250828 -2.35996609 2.2982366 0 0 Z " fill="#3281DA" transform="translate(223,244)"/>
<path d="M0 0 C1.17369141 -0.00386719 1.17369141 -0.00386719 2.37109375 -0.0078125 C4.5625 0.125 4.5625 0.125 7.5625 1.125 C7.5625 1.785 7.5625 2.445 7.5625 3.125 C8.861875 2.9703125 8.861875 2.9703125 10.1875 2.8125 C14.80006587 3.23958943 16.25544459 4.97542342 19.5625 8.125 C18.9025 9.445 18.2425 10.765 17.5625 12.125 C16.5725 12.125 15.5825 12.125 14.5625 12.125 C14.16417969 11.32707031 13.76585937 10.52914063 13.35546875 9.70703125 C11.71869512 6.75091865 11.71869512 6.75091865 7.98828125 6.19921875 C6.61956409 6.04713907 5.24802317 5.91890609 3.875 5.8125 C3.17310547 5.73966797 2.47121094 5.66683594 1.74804688 5.59179688 C0.02150733 5.41561937 -1.70785862 5.26754117 -3.4375 5.125 C-3.4375 4.465 -3.4375 3.805 -3.4375 3.125 C-4.4275 2.465 -5.4175 1.805 -6.4375 1.125 C-4.08479407 -0.05135297 -2.616748 -0.00859359 0 0 Z " fill="#1091AE" transform="translate(248.4375,279.875)"/>
<path d="M0 0 C0.26671305 3.925469 -0.25918806 5.87913009 -2.4375 9.125 C-5.50916263 14.27046875 -5.87862624 19.09682172 -6 25 C-6.66 25 -7.32 25 -8 25 C-9.69269267 16.95970983 -10.22693768 9.24617888 -6 2 C-3.77395991 0.44851751 -2.68814853 0 0 0 Z " fill="#1291B0" transform="translate(233,289)"/>
<path d="M0 0 C2.75717702 1.37858851 3.46321746 3.37466315 5 6 C11.20597385 12.20597385 19.75484554 11.66836411 28 12 C24.97455666 14.01696222 24.38932618 14.25811096 21 14.1875 C20.319375 14.18105469 19.63875 14.17460937 18.9375 14.16796875 C17 14 17 14 14 13 C14 13.99 14 14.98 14 16 C10 16 10 16 7.5 13.75 C6.2625 12.38875 6.2625 12.38875 5 11 C4.2575 10.38125 3.515 9.7625 2.75 9.125 C0.36243748 6.22581694 0.28285401 3.67710214 0 0 Z " fill="#0F85C0" transform="translate(228,315)"/>
<path d="M0 0 C0.66 0 1.32 0 2 0 C2.14695312 1.16015625 2.14695312 1.16015625 2.296875 2.34375 C3.70852296 12.17660823 6.38037239 18.64485821 13 26 C12 27 12 27 8.03100586 27.11352539 C6.25894393 27.1133662 4.4868774 27.10766785 2.71484375 27.09765625 C1.78402481 27.0962413 0.85320587 27.09482635 -0.1058197 27.09336853 C-3.09141191 27.08775172 -6.07693029 27.0751964 -9.0625 27.0625 C-11.08137913 27.05748716 -13.10025943 27.05292388 -15.11914062 27.04882812 C-20.07945572 27.03777683 -25.03971532 27.02050095 -30 27 C-30 26.67 -30 26.34 -30 26 C-29.01080566 25.97494385 -28.02161133 25.9498877 -27.00244141 25.92407227 C-23.33840596 25.83002213 -19.67456115 25.72979571 -16.01074219 25.62768555 C-14.42387343 25.58432759 -12.83695776 25.54265313 -11.25 25.50268555 C-8.97121021 25.44500368 -6.69265678 25.38130362 -4.4140625 25.31640625 C-3.70255035 25.29969376 -2.99103821 25.28298126 -2.25796509 25.26576233 C1.49660817 25.20278063 1.49660817 25.20278063 5 24 C5 24.66 5 25.32 5 26 C6.65 26 8.3 26 10 26 C10 25.34 10 24.68 10 24 C9.34 24 8.68 24 8 24 C1.50519065 17.50519065 0.5312156 8.77421629 0 0 Z " fill="#1E07C2" transform="translate(221,303)"/>
<path d="M0 0 C2 1 2 1 3.25 3.1875 C5.09523576 6.15305747 7.1163241 8.156699 9.6953125 10.47265625 C11.25769063 12.30166777 11.68506604 13.62845188 12 16 C11.67 16.66 11.34 17.32 11 18 C7.25147501 17.1480625 5.32461635 16.35093659 2.6875 13.5 C0.51961413 9.00364412 0.19520435 4.93866999 0 0 Z " fill="#2425D3" transform="translate(230,304)"/>
<path d="M0 0 C5.28 0 10.56 0 16 0 C13.85809492 5.3547627 12.74907807 6.21249765 8 9 C6.66079162 7.88200014 5.32877444 6.75538103 4 5.625 C2.88625 4.68527344 2.88625 4.68527344 1.75 3.7265625 C1.1725 3.15679687 0.595 2.58703125 0 2 C0 1.34 0 0.68 0 0 Z " fill="#3655B6" transform="translate(240,302)"/>
<path d="M0 0 C0.81974663 5.3232929 1.10303383 9.37232629 -2.00390625 13.95703125 C-4.25232337 16.41656734 -6.54160458 18.75134863 -9 21 C-9 16.72882674 -6.7747299 14.62237355 -4.3125 11.25390625 C-2.66452064 8.85859543 -2.66452064 8.85859543 -3 5 C-7.64849166 6.81564615 -10.58650364 10.57118989 -13.84570312 14.1875 C-16.16906572 16.63723797 -17.42925051 17.93266878 -20.84765625 18.3359375 C-21.55792969 18.22507812 -22.26820313 18.11421875 -23 18 C-22.41806885 17.74621582 -21.8361377 17.49243164 -21.23657227 17.23095703 C-18.75270273 15.86389337 -17.17046099 14.35204851 -15.21484375 12.3046875 C-14.51939453 11.58925781 -13.82394531 10.87382812 -13.10742188 10.13671875 C-11.65503104 8.62288564 -10.20452284 7.10724416 -8.75585938 5.58984375 C-8.06169922 4.87699219 -7.36753906 4.16414063 -6.65234375 3.4296875 C-6.02320068 2.77210449 -5.39405762 2.11452148 -4.74584961 1.43701172 C-3 0 -3 0 0 0 Z " fill="#1849B6" transform="translate(270,303)"/>
<path d="M0 0 C1.67542976 0.28604898 3.34385343 0.61781233 5 1 C5 1.66 5 2.32 5 3 C4.34 3 3.68 3 3 3 C3.268125 3.53625 3.53625 4.0725 3.8125 4.625 C4.04522311 7.57282601 3.4200144 8.04811495 1.5625 10.25 C0.716875 11.1575 -0.12875 12.065 -1 13 C3.95 13.33 8.9 13.66 14 14 C14 14.33 14 14.66 14 15 C10.93793495 15.22236782 7.87623354 15.42834898 4.8125 15.625 C3.51602539 15.72167969 3.51602539 15.72167969 2.19335938 15.8203125 C-2.37662165 16.10046459 -5.846226 16.2531859 -10 14 C-7 12 -7 12 -5 11 C-4.67 10.34 -4.34 9.68 -4 9 C-3.01 9 -2.02 9 -1 9 C-1.020625 7.700625 -1.04125 6.40125 -1.0625 5.0625 C-1.08399454 3.70834367 -1.07148199 2.35243917 -1 1 C-0.67 0.67 -0.34 0.34 0 0 Z " fill="#2F40C6" transform="translate(209,288)"/>
<path d="M0 0 C0.66 0.33 1.32 0.66 2 1 C1.38125 1.495 0.7625 1.99 0.125 2.5 C-2.74988222 5.88221437 -3.13451417 8.67257085 -4 13 C-4.61875 13.12375 -5.2375 13.2475 -5.875 13.375 C-8.19120832 13.87197356 -8.19120832 13.87197356 -10 16 C-10.61875 16.12375 -11.2375 16.2475 -11.875 16.375 C-14.76995054 17.22645604 -16.06317066 18.72923456 -18 21 C-18.33 21.99 -18.66 22.98 -19 24 C-19.66 24 -20.32 24 -21 24 C-19.52284691 19.02384051 -16.62321342 16.20389699 -13 12.6875 C-12.4534375 12.13771484 -11.906875 11.58792969 -11.34375 11.02148438 C-7.26731366 7 -7.26731366 7 -5 7 C-4.731875 6.401875 -4.46375 5.80375 -4.1875 5.1875 C-3.01506533 3.02775192 -1.80630718 1.64209744 0 0 Z " fill="#9FB2EE" transform="translate(190,275)"/>
<path d="M0 0 C-0.99 0.33 -1.98 0.66 -3 1 C-1.8321734 4.81413002 -1.8321734 4.81413002 1.125 7.3125 C1.74375 7.539375 2.3625 7.76625 3 8 C3 8.99 3 9.98 3 11 C3.61875 11.0825 4.2375 11.165 4.875 11.25 C7 12 7 12 8.25 14.0625 C8.4975 14.701875 8.745 15.34125 9 16 C9.8971875 15.7525 9.8971875 15.7525 10.8125 15.5 C13 15 13 15 16 15 C14.39182353 17.03138081 13.3882742 17.90644843 10.84375 18.51953125 C6.25426102 17.68106692 3.83045482 14.47287502 0.6875 11.1875 C-0.28026367 10.22360352 -0.28026367 10.22360352 -1.26757812 9.24023438 C-6 4.40765542 -6 4.40765542 -6 1 C-6.99 0.67 -7.98 0.34 -9 0 C-5.62182575 -0.84454356 -3.32534757 -1.10844919 0 0 Z " fill="#44A193" transform="translate(238,302)"/>
<path d="M0 0 C0.66 0.33 1.32 0.66 2 1 C2.73075648 3.3140622 3.40138258 5.64828869 4 8 C4.99 6.68 5.98 5.36 7 4 C7.99 4.33 8.98 4.66 10 5 C9.45730469 5.51949219 8.91460937 6.03898437 8.35546875 6.57421875 C3.00470957 11.75654302 3.00470957 11.75654302 -1 18 C-1.66 17.67 -2.32 17.34 -3 17 C-2.67 15.35 -2.34 13.7 -2 12 C-1.34 12 -0.68 12 0 12 C0 11.01 0 10.02 0 9 C-0.66 9 -1.32 9 -2 9 C-2 8.34 -2 7.68 -2 7 C-1.34 7 -0.68 7 0 7 C0 4.69 0 2.38 0 0 Z " fill="#4DAFE2" transform="translate(242,251)"/>
<path d="M0 0 C0.99 0.33 1.98 0.66 3 1 C2.6814443 4.50411265 2.30932553 6.5840105 0.1875 9.4375 C-2 11 -2 11 -4.125 10.875 C-6 10 -6 10 -8 8 C-5.36 5.36 -2.72 2.72 0 0 Z " fill="#2227D9" transform="translate(265,307)"/>
<path d="M0 0 C0.99 0 1.98 0 3 0 C2.6596875 1.5159375 2.6596875 1.5159375 2.3125 3.0625 C1.86410654 8.71225764 3.75327095 12.10841109 6.8125 16.75 C10.11974557 20.1517383 12.88399232 21.83108792 17.69140625 22.21484375 C21.96139914 22.26601544 25.87979273 22.19930916 30 21 C28.11445428 23.55263409 27.11795056 23.9806663 23.92578125 24.50390625 C16.78161241 24.61975764 11.99147893 24.4912394 6.55078125 19.60546875 C6.03902344 19.07566406 5.52726563 18.54585938 5 18 C4.46117187 17.48179687 3.92234375 16.96359375 3.3671875 16.4296875 C-0.59111572 12.29043328 -0.18017627 7.38719586 -0.0703125 2.01171875 C-0.04710937 1.34785156 -0.02390625 0.68398438 0 0 Z " fill="#0B35BA" transform="translate(229,303)"/>
<path d="M0 0 C0.8971875 0.495 0.8971875 0.495 1.8125 1 C4.05386471 2.20787988 4.05386471 2.20787988 7 2 C7.66 2.33 8.32 2.66 9 3 C8.071875 3.99 8.071875 3.99 7.125 5 C4.50125518 8.70411034 3.89913658 11.57924515 3 16 C2.67 15.34 2.34 14.68 2 14 C-0.31 14.66 -2.62 15.32 -5 16 C-4.34 14.68 -3.68 13.36 -3 12 C-2.34 12 -1.68 12 -1 12 C-1 10.68 -1 9.36 -1 8 C0.32 7.34 1.64 6.68 3 6 C2.5359375 5.071875 2.5359375 5.071875 2.0625 4.125 C1.375 2.75 0.6875 1.375 0 0 Z " fill="#97DEBF" transform="translate(264,284)"/>
<path d="M0 0 C-1.20381448 2.49361571 -2.45428722 4.68143083 -4 7 C-5.32 7 -6.64 7 -8 7 C-8.12375 7.515625 -8.2475 8.03125 -8.375 8.5625 C-9.18641628 11.72702351 -10.0945913 14.86124985 -11 18 C-11.66 18 -12.32 18 -13 18 C-13 19.65 -13 21.3 -13 23 C-13.33 23 -13.66 23 -14 23 C-13.67 18.71 -13.34 14.42 -13 10 C-11.68 9.67 -10.36 9.34 -9 9 C-8.938125 8.443125 -8.87625 7.88625 -8.8125 7.3125 C-7.31059735 3.03785401 -4.59925477 0 0 0 Z " fill="#4A5BD6" transform="translate(180,290)"/>
<path d="M0 0 C2.9931932 4.48978981 2.70964947 8.7385585 2 14 C0.04996488 18.83235794 -2.16080663 21.92162849 -7 24 C-6.01 22.02 -5.02 20.04 -4 18 C-3.34 18 -2.68 18 -2 18 C-1.93941406 16.78441406 -1.87882812 15.56882812 -1.81640625 14.31640625 C-1.73201668 12.73175772 -1.6473679 11.14712298 -1.5625 9.5625 C-1.52318359 8.76005859 -1.48386719 7.95761719 -1.44335938 7.13085938 C-1.11328125 1.11328125 -1.11328125 1.11328125 0 0 Z " fill="#0690B0" transform="translate(272,302)"/>
<path d="M0 0 C0.66 0.66 1.32 1.32 2 2 C1.625 5.625 1.625 5.625 1 9 C0.01 9.33 -0.98 9.66 -2 10 C-2.33 10.99 -2.66 11.98 -3 13 C-3.66 12.67 -4.32 12.34 -5 12 C-4.484375 11.443125 -3.96875 10.88625 -3.4375 10.3125 C-1.70523302 8.05914993 -1.70523302 8.05914993 -2.3125 5.25 C-2.6528125 4.13625 -2.6528125 4.13625 -3 3 C-5.96175123 3.61277612 -7.38058783 4.25372522 -10 6 C-7.87475807 1.09559554 -5.3765736 -0.55144345 0 0 Z " fill="#ACE3C4" transform="translate(283,280)"/>
<path d="M0 0 C5.30152282 2.14585447 9.67054697 4.65358177 12 10 C12.73128986 15.63564099 12.34339114 21.3467644 12 27 C11.34 27.33 10.68 27.66 10 28 C10.04640625 27.0821875 10.0928125 26.164375 10.140625 25.21875 C10.55319215 14.90675641 10.55319215 14.90675641 6 6 C4.0766916 4.4425893 2.14022227 3.2646768 0 2 C0 1.34 0 0.68 0 0 Z " fill="#55E4E6" transform="translate(251,216)"/>
<path d="M0 0 C0.66 0 1.32 0 2 0 C2.09796875 0.7734375 2.1959375 1.546875 2.296875 2.34375 C3.70852296 12.17660823 6.38037239 18.64485821 13 26 C12.01 26 11.02 26 10 26 C10 25.34 10 24.68 10 24 C9.34 24 8.68 24 8 24 C1.50519065 17.50519065 0.5312156 8.77421629 0 0 Z " fill="#0D34BB" transform="translate(221,303)"/>
<path d="M0 0 C0.66 0 1.32 0 2 0 C1.67 5.28 1.34 10.56 1 16 C0.34 16 -0.32 16 -1 16 C-1.22281874 14.08496326 -1.42771076 12.16783494 -1.625 10.25 C-1.74101562 9.18265625 -1.85703125 8.1153125 -1.9765625 7.015625 C-2.00029475 3.96207601 -1.61420985 2.53837579 0 0 Z " fill="#0591B6" transform="translate(226,298)"/>
<path d="M0 0 C2.05078125 0.03255208 4.1015625 0.06510417 6.15234375 0.09765625 C5.82234375 1.41765625 5.49234375 2.73765625 5.15234375 4.09765625 C2.18234375 4.75765625 -0.78765625 5.41765625 -3.84765625 6.09765625 C-2.77957394 0.14691194 -2.77957394 0.14691194 0 0 Z " fill="#0E90AC" transform="translate(237.84765625,282.90234375)"/>
<path d="M0 0 C1 2 1 2 0.3828125 3.859375 C-1.40075554 6.62037864 -3.52451985 8.24963065 -6.125 10.25 C-7.03507813 10.95640625 -7.94515625 11.6628125 -8.8828125 12.390625 C-9.58148438 12.92171875 -10.28015625 13.4528125 -11 14 C-11.66 13.67 -12.32 13.34 -13 13 C-8.71 8.71 -4.42 4.42 0 0 Z " fill="#4593CB" transform="translate(219,248)"/>
<path d="M0 0 C0.66 0.33 1.32 0.66 2 1 C1.38511719 1.49628906 0.77023438 1.99257812 0.13671875 2.50390625 C-6.92185971 8.43671462 -9.86306751 12.6771536 -11 22 C-11.33 22 -11.66 22 -12 22 C-12.60825648 15.18752742 -11.38552408 11.27565521 -7 6 C-4.77730485 3.84159769 -2.46495935 1.87535812 0 0 Z " fill="#59DDE3" transform="translate(179,216)"/>
<path d="M0 0 C0.66 0.99 1.32 1.98 2 3 C4.609621 3.38411275 7.0058074 3.60293197 9.625 3.6875 C10.33140625 3.72166016 11.0378125 3.75582031 11.765625 3.79101562 C13.50985688 3.87351308 15.25490395 3.93843335 17 4 C17 4.33 17 4.66 17 5 C13.93793495 5.22236782 10.87623354 5.42834898 7.8125 5.625 C6.51602539 5.72167969 6.51602539 5.72167969 5.19335938 5.8203125 C0.62337835 6.10046459 -2.846226 6.2531859 -7 4 C-4.68143083 2.45428722 -2.49361571 1.20381448 0 0 Z " fill="#4651D1" transform="translate(206,298)"/>
<path d="M0 0 C1.26169079 0.64426764 2.51693469 1.30250851 3.75 2 C0.88822943 3.43088528 -1.18375773 2.59991697 -4.25 2 C-4.25 1.34 -4.25 0.68 -4.25 0 C-13.30370885 -0.20720114 -13.30370885 -0.20720114 -22.25 1 C-16.80802537 -4.44197463 -6.46240066 -2.90295141 0 0 Z " fill="#B2E1EA" transform="translate(260.25,281)"/>
<path d="M0 0 C0.47050781 0.40992188 0.94101563 0.81984375 1.42578125 1.2421875 C2.04839844 1.78101563 2.67101562 2.31984375 3.3125 2.875 C4.23482422 3.67550781 4.23482422 3.67550781 5.17578125 4.4921875 C7.13498212 6.1640447 7.13498212 6.1640447 10 8 C10.78375 7.195625 11.5675 6.39125 12.375 5.5625 C15 3 15 3 17 2 C15.75406918 5.84162002 14.66608297 8.1145859 11 10 C7.50543352 10 5.39418473 8.7445804 2.6875 6.6875 C1.800625 5.800625 0.91375 4.91375 0 4 C0 2.68 0 1.36 0 0 Z " fill="#3BA192" transform="translate(239,302)"/>
<path d="M0 0 C0.33 0.66 0.66 1.32 1 2 C0.67 2.99 0.34 3.98 0 5 C-0.66 5 -1.32 5 -2 5 C-2.20625 5.5775 -2.4125 6.155 -2.625 6.75 C-4.49750888 9.81410544 -6.96958519 11.15539968 -10 13 C-10.66 12.67 -11.32 12.34 -12 12 C-8.04 8.04 -4.08 4.08 0 0 Z " fill="#4273C9" transform="translate(201,266)"/>
<path d="M0 0 C5.28 0 10.56 0 16 0 C15.34 1.32 14.68 2.64 14 4 C13.01 3.67 12.02 3.34 11 3 C8.94106379 2.77674186 6.87766347 2.59294241 4.8125 2.4375 C3.18248047 2.31181641 3.18248047 2.31181641 1.51953125 2.18359375 C0.68808594 2.12300781 -0.14335937 2.06242187 -1 2 C-0.67 1.34 -0.34 0.68 0 0 Z " fill="#282BC5" transform="translate(205,303)"/>
<path d="M0 0 C1.65 0.33 3.3 0.66 5 1 C6.125 4.75 6.125 4.75 5 7 C3.02 6.34 1.04 5.68 -1 5 C-0.67 3.35 -0.34 1.7 0 0 Z " fill="#2217D6" transform="translate(236,315)"/>
<path d="M0 0 C0.99 0.33 1.98 0.66 3 1 C1.6970768 3.906521 0.29126619 5.80835408 -2 8 C-2.33 8.66 -2.66 9.32 -3 10 C-3.66 9.67 -4.32 9.34 -5 9 C-2.25 2.25 -2.25 2.25 0 0 Z M-7 10 C-6.34 10.33 -5.68 10.66 -5 11 C-5.99 11.66 -6.98 12.32 -8 13 C-7.67 12.01 -7.34 11.02 -7 10 Z M-10 13 C-8 14 -8 14 -8 14 Z " fill="#349CD9" transform="translate(223,244)"/>
<path d="M0 0 C0.66 0.99 1.32 1.98 2 3 C1.67 3.99 1.34 4.98 1 6 C-2.0625 7.1875 -2.0625 7.1875 -5 8 C-5.99 7.01 -6.98 6.02 -8 5 C-7.05125 4.54625 -6.1025 4.0925 -5.125 3.625 C-1.99686321 2.19761746 -1.99686321 2.19761746 0 0 Z " fill="#2FBB66" transform="translate(277,286)"/>
<path d="M0 0 C0.66 0 1.32 0 2 0 C2 0.99 2 1.98 2 3 C2.928125 3.12375 2.928125 3.12375 3.875 3.25 C6 4 6 4 7.25 6.0625 C7.4975 6.701875 7.745 7.34125 8 8 C8.598125 7.835 9.19625 7.67 9.8125 7.5 C12 7 12 7 15 7 C13.33186857 9.10711338 12.32749666 9.92033865 9.6875 10.5625 C5.69829394 9.72754989 3.36063738 7.25708196 1 4 C0.328125 1.796875 0.328125 1.796875 0 0 Z " fill="#3CAA8E" transform="translate(239,310)"/>
<path d="M0 0 C0.66 0 1.32 0 2 0 C2.75 1.75 2.75 1.75 3 4 C1.0625 6.25 1.0625 6.25 -1 8 C-1.99 7.67 -2.98 7.34 -4 7 C-2.92598892 4.08482708 -2.22189824 2.22189824 0 0 Z " fill="#2EBB67" transform="translate(264,298)"/>
<path d="M0 0 C2.75799098 1.37899549 3.43852596 3.37672362 5 6 C5.556875 6.556875 6.11375 7.11375 6.6875 7.6875 C7.120625 8.120625 7.55375 8.55375 8 9 C8 9.66 8 10.32 8 11 C5.77888714 10.61704951 4.19619717 10.13079812 2.3125 8.875 C0.36694189 6.09563127 0.31331211 3.32110837 0 0 Z " fill="#0392B8" transform="translate(228,315)"/>
<path d="M0 0 C0.99 0.33 1.98 0.66 3 1 C2.01 2.98 1.02 4.96 0 7 C-1.32 7 -2.64 7 -4 7 C-3.6875 4.625 -3.6875 4.625 -3 2 C-2.01 1.34 -1.02 0.68 0 0 Z " fill="#2EBC6B" transform="translate(257,306)"/>
<path d="M0 0 C1.98 0 3.96 0 6 0 C6.1875 2.375 6.1875 2.375 6 5 C5.01 5.66 4.02 6.32 3 7 C0 2.25 0 2.25 0 0 Z " fill="#1F38C8" transform="translate(245,304)"/>
<path d="M0 0 C5.95435823 0.56708174 9.84618595 2.70723021 13.9375 7.0625 C14.288125 7.701875 14.63875 8.34125 15 9 C14.67 9.99 14.34 10.98 14 12 C13.6596875 11.54109375 13.319375 11.0821875 12.96875 10.609375 C9.13995611 5.76228486 5.66557161 3.44205673 0 1 C0 0.67 0 0.34 0 0 Z " fill="#C7FBFB" transform="translate(248,214)"/>
<path d="M0 0 C2 3 2 3 2 5 C2.61875 5.061875 3.2375 5.12375 3.875 5.1875 C6 6 6 6 7.125 8.375 C7.41375 9.24125 7.7025 10.1075 8 11 C8.99 12.485 8.99 12.485 10 14 C6.66865759 12.59504255 4.90666854 11.01145032 2.75 8.125 C2.22921875 7.44695312 1.7084375 6.76890625 1.171875 6.0703125 C0 4 0 4 0 0 Z " fill="#9D94DC" transform="translate(167,315)"/>
<path d="M0 0 C1.43655854 -0.08131463 2.8744483 -0.13933559 4.3125 -0.1875 C5.51326172 -0.23970703 5.51326172 -0.23970703 6.73828125 -0.29296875 C9 0 9 0 10.79296875 1.32421875 C12 3 12 3 12 6 C11.505 5.731875 11.01 5.46375 10.5 5.1875 C7.0763054 3.56124507 3.55867715 2.30484829 0 1 C0 0.67 0 0.34 0 0 Z " fill="#7EC4D1" transform="translate(251,286)"/>
<path d="M0 0 C0.99 0.33 1.98 0.66 3 1 C2.67 2.98 2.34 4.96 2 7 C1.67 6.34 1.34 5.68 1 5 C-0.98 5.33 -2.96 5.66 -5 6 C-3.35 4.02 -1.7 2.04 0 0 Z " fill="#2132D3" transform="translate(265,307)"/>
<path d="M0 0 C0.66 0 1.32 0 2 0 C0.59698853 3.18673962 -1.07765071 5.32221406 -3.5625 7.75 C-4.49255859 8.67039062 -4.49255859 8.67039062 -5.44140625 9.609375 C-7 11 -7 11 -8 11 C-8 9.35 -8 7.7 -8 6 C-7.38125 5.896875 -6.7625 5.79375 -6.125 5.6875 C-3.63473516 5.12474627 -3.63473516 5.12474627 -2 2 C-1.34 2 -0.68 2 0 2 C0 1.34 0 0.68 0 0 Z " fill="#3059C7" transform="translate(225,279)"/>
<path d="M0 0 C3.63 0.33 7.26 0.66 11 1 C8.875 3.125 8.875 3.125 6 5 C2.6875 4.25 2.6875 4.25 0 3 C0 2.01 0 1.02 0 0 Z " fill="#1D08BD" transform="translate(173,322)"/>
<path d="M0 0 C0.66 0 1.32 0 2 0 C1.67 2.97 1.34 5.94 1 9 C0.34 9 -0.32 9 -1 9 C-1 10.65 -1 12.3 -1 14 C-1.33 14 -1.66 14 -2 14 C-1.85970581 11.8537974 -1.71261836 9.70803782 -1.5625 7.5625 C-1.48128906 6.36753906 -1.40007812 5.17257812 -1.31640625 3.94140625 C-1 1 -1 1 0 0 Z " fill="#9494DF" transform="translate(168,299)"/>
<path d="M0 0 C0.66 0.66 1.32 1.32 2 2 C-3.625 6 -3.625 6 -7 6 C-7 6.66 -7 7.32 -7 8 C-7.66 8 -8.32 8 -9 8 C-8.75390625 6.140625 -8.75390625 6.140625 -8 4 C-6.15234375 2.734375 -6.15234375 2.734375 -3.9375 1.75 C-2.83728516 1.24726563 -2.83728516 1.24726563 -1.71484375 0.734375 C-1.14894531 0.49203125 -0.58304688 0.2496875 0 0 Z " fill="#2F5EDA" transform="translate(196,275)"/>
<path d="M0 0 C0.66 0 1.32 0 2 0 C0.63855967 5.19822672 -1.46730171 8.09543873 -5 12 C-5.66 11.67 -6.32 11.34 -7 11 C-5.625 8.5 -5.625 8.5 -4 6 C-3.34 6 -2.68 6 -2 6 C-1.34 4.02 -0.68 2.04 0 0 Z " fill="#208AA1" transform="translate(272,314)"/>
<path d="M0 0 C2.78388975 1.70625501 3.85384206 2.47626739 4.75 5.6875 C4.8325 6.450625 4.915 7.21375 5 8 C4.01 8 3.02 8 2 8 C-0.14720899 5.85279101 -0.5434221 4.92209857 -1 2 C-0.67 1.34 -0.34 0.68 0 0 Z " fill="#3947EB" transform="translate(188,296)"/>
<path d="M0 0 C2 2 2 2 2.1953125 4.6015625 C2.17210937 5.59929687 2.14890625 6.59703125 2.125 7.625 C2.10695313 8.62789063 2.08890625 9.63078125 2.0703125 10.6640625 C2.03550781 11.82035156 2.03550781 11.82035156 2 13 C1.67 13 1.34 13 1 13 C0.34 10.03 -0.32 7.06 -1 4 C-2.32 4 -3.64 4 -5 4 C-3.74458443 1.48916886 -2.49936512 1.12874554 0 0 Z " fill="#3191A4" transform="translate(273,299)"/>
<path d="M0 0 C1.98 0.495 1.98 0.495 4 1 C2.375 6.75 2.375 6.75 -1 9 C-1 7.02 -1 5.04 -1 3 C-0.34 3 0.32 3 1 3 C0.67 2.01 0.34 1.02 0 0 Z " fill="#5B72D9" transform="translate(213,288)"/>
<path d="M0 0 C2.62187494 1.04874998 3.79371361 1.64931313 5.25 4.125 C5.4975 4.74375 5.745 5.3625 6 6 C5.34 6.66 4.68 7.32 4 8 C3.01 8 2.02 8 1 8 C1 7.34 1 6.68 1 6 C1.66 6 2.32 6 3 6 C2.2575 5.071875 2.2575 5.071875 1.5 4.125 C0 2 0 2 0 0 Z " fill="#2790A8" transform="translate(262,284)"/>
<path d="M0 0 C0.99 0.33 1.98 0.66 3 1 C0.36 3.64 -2.28 6.28 -5 9 C-5.33 7.68 -5.66 6.36 -6 5 C-5.01 5 -4.02 5 -3 5 C-3 4.01 -3 3.02 -3 2 C-2.01 2 -1.02 2 0 2 C0 1.34 0 0.68 0 0 Z " fill="#3C7AC9" transform="translate(237,267)"/>
<path d="M0 0 C0.7425 0.0825 1.485 0.165 2.25 0.25 C1.25 3.25 1.25 3.25 -1.125 4.5 C-3.75 5.25 -3.75 5.25 -6.75 4.25 C-3.42692308 0.31153846 -3.42692308 0.31153846 0 0 Z " fill="#1591A7" transform="translate(260.75,326.75)"/>
<path d="M0 0 C2.125 0.375 2.125 0.375 4 1 C1.6875 3.5 1.6875 3.5 -1 6 C-1.99 6 -2.98 6 -4 6 C-2.84826645 3.53199953 -1.95216435 1.95216435 0 0 Z " fill="#73BDCA" transform="translate(231,285)"/>
<path d="M0 0 C1.98 0.99 1.98 0.99 4 2 C3.44855089 6.08072342 3.08669204 6.91330796 0 10 C0 6.7 0 3.4 0 0 Z " fill="#3BB76F" transform="translate(278,282)"/>
<path d="M0 0 C1.32 0.66 2.64 1.32 4 2 C3.67 3.98 3.34 5.96 3 8 C2.67 6.68 2.34 5.36 2 4 C-0.33075929 4.95865509 -0.33075929 4.95865509 -2 8 C-1.125 1.125 -1.125 1.125 0 0 Z " fill="#178BA5" transform="translate(226,294)"/>
<path d="M0 0 C0 2.62834278 -0.19789762 5.08186701 -0.5 7.6875 C-0.5928125 8.49574219 -0.685625 9.30398438 -0.78125 10.13671875 C-0.8534375 10.75160156 -0.925625 11.36648438 -1 12 C-3.32528287 9.67471713 -3.29511025 9.15334102 -3.3125 6 C-3.32925781 5.29875 -3.34601563 4.5975 -3.36328125 3.875 C-3.24339844 3.25625 -3.12351563 2.6375 -3 2 C-2.01 1.34 -1.02 0.68 0 0 Z " fill="#2846E0" transform="translate(189,283)"/>
<path d="M0 0 C1.67542976 0.28604898 3.34385343 0.61781233 5 1 C5 1.66 5 2.32 5 3 C4.01 3 3.02 3 2 3 C2 3.66 2 4.32 2 5 C1.34 5 0.68 5 0 5 C-0.33 6.32 -0.66 7.64 -1 9 C-1.09765625 2.84765625 -1.09765625 2.84765625 -1 1 C-0.67 0.67 -0.34 0.34 0 0 Z " fill="#2543DF" transform="translate(209,288)"/>
<path d="M0 0 C1.32 1.32 2.64 2.64 4 4 C3.01 4 2.02 4 1 4 C0.34 5.32 -0.32 6.64 -1 8 C-1.66 6.68 -2.32 5.36 -3 4 C-2.01 3.34 -1.02 2.68 0 2 C0 1.34 0 0.68 0 0 Z " fill="#1E1ECE" transform="translate(235,311)"/>
<path d="M0 0 C-0.33 2.31 -0.66 4.62 -1 7 C-1.99 6.34 -2.98 5.68 -4 5 C-4 3.68 -4 2.36 -4 1 C-2 0 -2 0 0 0 Z " fill="#32BA66" transform="translate(239,302)"/>
<path d="M0 0 C1.4800841 0.11362262 2.95910074 0.24122908 4.4375 0.375 C5.26121094 0.44460937 6.08492187 0.51421875 6.93359375 0.5859375 C7.95646484 0.79089844 7.95646484 0.79089844 9 1 C9.33 1.66 9.66 2.32 10 3 C7.03 3 4.06 3 1 3 C0.67 2.01 0.34 1.02 0 0 Z " fill="#2AAEDC" transform="translate(229,243)"/>
<path d="M0 0 C1.98 0.495 1.98 0.495 4 1 C4 1.99 4 2.98 4 4 C2.02 4.99 2.02 4.99 0 6 C-1 3 -1 3 0 0 Z " fill="#3E48F0" transform="translate(172,297)"/>
<path d="M0 0 C1.5 1.3125 1.5 1.3125 3 3 C3 3.99 3 4.98 3 6 C1.0625 5.6875 1.0625 5.6875 -1 5 C-1.33 4.01 -1.66 3.02 -2 2 C-1.34 1.34 -0.68 0.68 0 0 Z " fill="#3D51F3" transform="translate(185,292)"/>
<path d="M0 0 C0 0.99 0 1.98 0 3 C-0.99 3.495 -0.99 3.495 -2 4 C-2 3.34 -2 2.68 -2 2 C-4.31 2 -6.62 2 -9 2 C-5.86501708 0.14223235 -3.62528568 -0.20140476 0 0 Z " fill="#148FB6" transform="translate(265,325)"/>
<path d="M0 0 C0.99 0.33 1.98 0.66 3 1 C-0.625 5.875 -0.625 5.875 -4 7 C-4 5.68 -4 4.36 -4 3 C-3.01 2.67 -2.02 2.34 -1 2 C-0.67 1.34 -0.34 0.68 0 0 Z " fill="#4BD9F4" transform="translate(253,249)"/>
<path d="M0 0 C1.32 0.33 2.64 0.66 4 1 C4.33 2.98 4.66 4.96 5 7 C4.34 6.67 3.68 6.34 3 6 C3 5.34 3 4.68 3 4 C2.34 4 1.68 4 1 4 C0.67 2.68 0.34 1.36 0 0 Z " fill="#3EC8F0" transform="translate(239,245)"/>
</svg>
